<svg xmlns:dc="http://purl.org/dc/elements/1.1/" xmlns:cc="http://creativecommons.org/ns#" xmlns:rdf="http://www.w3.org/1999/02/22-rdf-syntax-ns#" xmlns:svg="http://www.w3.org/2000/svg" xmlns="http://www.w3.org/2000/svg" xmlns:sodipodi="http://sodipodi.sourceforge.net/DTD/sodipodi-0.dtd"
                xmlns:inkscape="http://www.inkscape.org/namespaces/inkscape" viewBox="0 0 432 488" id="chart">
             
                <path
                   id="path1014"
                   
                  
                   stroke-width="1.8"
                   d="M368.5922718803613,239.9883983544513L368.9295172138229,241.23970066169045L368.2100605024375,243.4989926765191L368.165094457976,244.7482716429098L368.8845511693612,246.741254343901L368.72717001374576,248.51370578623175L369.5590418362849,249.25727282871833L369.71642299190034,251.5956918893612L369.1543474361306,253.1459951051233L367.535569835514,252.81855613663242L366.77114707966734,255.15323861573285L365.89430921266626,255.74197982002136L364.65774298997303,255.00057679457007L362.45440681135574,253.60432896332463L362.20709356681687,255.37130891461868L360.9030782774312,255.82918761626541L360.9930103663546,254.04074999855038L360.633282010662,250.8966101966913L359.576579965815,244.22234675038993L358.67725907658337,242.0734999593161L357.55310796504386,241.10801876359346L357.8453872540442,239.17576064138086L357.1708965871205,236.29610911790297L358.00276840965967,235.83412491994062L357.4406928538899,234.93186712868714L356.09171152004274,229.7970982469957L355.9792964088888,228.45073327985256L355.86688129773506,227.0593156758572L356.8561342758894,225.44587649969725L356.67627009804323,223.2115153828487L356.9460663648126,221.10768206720206L356.42895685350436,220.11037835966232L358.2950476986598,220.02170568994188L358.49739489873696,221.572924919763L359.9138252992768,221.196307865403L360.1836215660462,220.06604250396128L361.0829424552776,219.93302918637352L361.28528965535475,218.71333787437902L362.2295765890476,218.358382012636L363.2862786338949,215.7831025955789L363.84835418966463,217.29314401206744L365.2647845902043,217.75925407821552L366.92852823528256,217.40413226614857L367.1308754353597,220.28771220215162L366.43390174620527,222.19308523570663L369.8288381030543,223.30005079705575L370.503328769978,223.7205422561999L372.6167328596723,225.24687267504459L373.0663933042879,229.6867729644013L373.0214272598264,231.64969837594663L372.5268007707491,232.13463422627513L372.70666494859506,233.8750788802319L372.05465730390233,234.7997973266829L372.54928379297985,236.56005520728655L372.00969125944084,238.91213654592013L371.20030245913244,240.0103572813149L369.67145694743886,239.1977278572828Z">
                  <title
                     id="title1012">0.04% from Mizoram</title>
                </path>
                </svg>