<svg id="chart" viewBox="0 0 432 488" preserveAspectRatio="xMidYMid meet" pointer-events="auto"><g class="regions"><path d="M330.4568216658081,122.28366013828781L336.8584568216611,131.01668901238736L354.5181400102301,135.4894122523183L358.2708226877876,156.99832365107432L371.7363311190711,155.72069404234935L383.87736331118504,168.2833527803632L382.773633111894,181.4831143263873L382.773633111894,182.76041947364502L384.31885539089853,182.54753639894625L390.27899846703804,181.69599963413202L418.092999489003,177.43820861380664L411.4706182933005,191.4882410711616L419.6382217680075,207.66465767121917L411.69136433316453,212.7724644338923L405.51047521717555,247.03069770294314L427.8058252427145,265.75081701262025L427.58507920285047,277.66182715252216L426.0398569238605,278.5125602557782L403.08226877874404,290.42207733022224L389.83750638732454,318.9141988873853L389.175268267747,319.9771835922802L390.7204905467661,321.465343557109L432,363.9750289599215L423.17015840573004,378.6367631156718L403.744506898307,399.6694889092796L383.43587123147154,387.3478112002049L352.31067961163353,400.51920502565554L343.48083801736357,404.34284013595243L341.7148696985241,408.5911558550979L334.6509964230936,424.7331460015048L345.9090444557951,429.6177198564801L346.3505365355086,431.10428300100466L348.1165048543626,451.9138999203642L332.66428206439014,465.2892774840875L326.9248850281001,468.261346407784L311.9141543178266,471.02104748655256L293.37148696984514,470.5964829285658L286.5283597342932,475.9034134524263L284.98313745528867,476.11568495611573L277.6985181400087,455.73561463773876L275.4910577414412,454.674041524584L241.71691364333674,436.8379671071634L230.90035769034876,411.56487182277124L237.52273888605123,394.78348413699496L239.06796116505575,387.56026650818603L219.20081757791922,375.23712817674823L214.12365866120672,372.04986763490524L205.07307102708728,366.52504701002545L176.15533980583132,367.8000321504551L142.60194174756907,343.9976830675987L142.60194174756907,344.21022860791345L136.8625447112936,352.9242145501121L150.10730710269854,362.9125026393267L145.2508942258646,369.71248000836204L117.87838528359862,363.3375144946767L93.81706693919114,379.48665416900985L58.2769545222327,370.5624453360724L38.40981093511073,380.9739464957238L33.994890137975744,379.2741820686897L40.39652529381419,363.9750289599215L4.856412876855757,335.2829345871796L0,304.03124878550443L20.970873786412994,300.84176235477935L41.500255493105215,256.17845914517966L56.731732243235456,264.04913032458353L68.65201839551446,256.60391639899535L80.79305058763566,269.36680673897354L81.01379662749969,268.9414028519459L83.0005109862177,266.6016496847951L88.51916198262916,259.79478908480087L87.85692386305163,258.51845202083496L72.62544711292867,238.73317912211496L81.23454266734188,221.71050829968226L96.90751149718562,221.9233092842005L96.90751149718562,221.71050829968226L96.90751149718562,221.71050829968226L112.58048032703664,192.55255821643368L92.49259070005064,177.6511024083593L102.4261624936189,158.27593716048432L89.40214614205615,137.6192110639604L98.89422585590364,124.83974652937832L97.12825753705692,101.83264574514396L97.12825753705692,101.61959260059666L96.68676545733615,101.61959260059666L87.19468574348866,94.58858718830015L95.36228921820293,75.62374230345085L109.04854368932865,80.9513050650894L107.72406745018816,68.37780646656756L108.16555952990166,66.67280491399288L119.20286152273184,72.42706991590967L119.42360756259586,72.21395483005472L119.64435360245989,72.21395483005472L131.56463975472434,55.58959375346603L133.99284619314858,55.16329212775236L170.4159427695413,62.19703901107641L185.6474195196788,27.23661706472558L199.99591211037477,27.449827042866673L206.83903934594127,11.88431504388791L239.28870720490522,36.40423960741464L255.84466019416868,32.77993017692279L257.6106285130372,55.376443165419914L258.7143587123137,55.58959375346603L268.4271844660252,57.0816352815782L270.1931527848792,57.50792881498273L270.1931527848792,57.29478227304571L285.6453755748662,36.40423960741464L320.30250383239763,41.94704952369284L321.6269800715381,44.9315134975368L325.82115482882364,62.6233109689274L322.73071027082915,85.00006508062143L307.94072560040513,81.16440173811498L308.8237097598467,99.70209411625183L313.23863055698166,101.19348496595921L335.7547266223701,108.86314793595739L325.1589167092461,115.04106498296096L330.2360756259586,121.85763946773295Z" stroke-width="1.8" stroke-opacity="1" style="cursor: pointer;" fill="rgb(15, 87, 159)" stroke="rgb(0, 123, 255)" pointer-events="all"><title>100% from Delhi</title></path></g><g class="state-borders" fill="none" stroke-width="1.5"></g><g class="district-borders" fill="none" stroke-width="1.5"><path d="M330.4568216658081,122.28366013828781L336.8584568216611,131.01668901238736L354.5181400102301,135.4894122523183L358.2708226877876,156.99832365107432L371.7363311190711,155.72069404234935L383.87736331118504,168.2833527803632L382.773633111894,181.4831143263873L382.773633111894,182.76041947364502L384.31885539089853,182.54753639894625L390.27899846703804,181.69599963413202L418.092999489003,177.43820861380664L411.4706182933005,191.4882410711616L419.6382217680075,207.66465767121917L411.69136433316453,212.7724644338923L405.51047521717555,247.03069770294314L427.8058252427145,265.75081701262025L427.58507920285047,277.66182715252216L426.0398569238605,278.5125602557782L403.08226877874404,290.42207733022224L389.83750638732454,318.9141988873853L389.175268267747,319.9771835922802L390.7204905467661,321.465343557109L432,363.9750289599215L423.17015840573004,378.6367631156718L403.744506898307,399.6694889092796L383.43587123147154,387.3478112002049L352.31067961163353,400.51920502565554L343.48083801736357,404.34284013595243L341.7148696985241,408.5911558550979L334.6509964230936,424.7331460015048L345.9090444557951,429.6177198564801L346.3505365355086,431.10428300100466L348.1165048543626,451.9138999203642L332.66428206439014,465.2892774840875L326.9248850281001,468.261346407784L311.9141543178266,471.02104748655256L293.37148696984514,470.5964829285658L286.5283597342932,475.9034134524263L284.98313745528867,476.11568495611573L277.6985181400087,455.73561463773876L275.4910577414412,454.674041524584L241.71691364333674,436.8379671071634L230.90035769034876,411.56487182277124L237.52273888605123,394.78348413699496L239.06796116505575,387.56026650818603L219.20081757791922,375.23712817674823L214.12365866120672,372.04986763490524L205.07307102708728,366.52504701002545L176.15533980583132,367.8000321504551L142.60194174756907,343.9976830675987L142.60194174756907,344.21022860791345L136.8625447112936,352.9242145501121L150.10730710269854,362.9125026393267L145.2508942258646,369.71248000836204L117.87838528359862,363.3375144946767L93.81706693919114,379.48665416900985L58.2769545222327,370.5624453360724L38.40981093511073,380.9739464957238L33.994890137975744,379.2741820686897L40.39652529381419,363.9750289599215L4.856412876855757,335.2829345871796L0,304.03124878550443L20.970873786412994,300.84176235477935L41.500255493105215,256.17845914517966L56.731732243235456,264.04913032458353L68.65201839551446,256.60391639899535L80.79305058763566,269.36680673897354L81.01379662749969,268.9414028519459L83.0005109862177,266.6016496847951L88.51916198262916,259.79478908480087L87.85692386305163,258.51845202083496L72.62544711292867,238.73317912211496L81.23454266734188,221.71050829968226L96.90751149718562,221.9233092842005L96.90751149718562,221.71050829968226L96.90751149718562,221.71050829968226L112.58048032703664,192.55255821643368L92.49259070005064,177.6511024083593L102.4261624936189,158.27593716048432L89.40214614205615,137.6192110639604L98.89422585590364,124.83974652937832L97.12825753705692,101.83264574514396L97.12825753705692,101.61959260059666L96.68676545733615,101.61959260059666L87.19468574348866,94.58858718830015L95.36228921820293,75.62374230345085L109.04854368932865,80.9513050650894L107.72406745018816,68.37780646656756L108.16555952990166,66.67280491399288L119.20286152273184,72.42706991590967L119.42360756259586,72.21395483005472L119.64435360245989,72.21395483005472L131.56463975472434,55.58959375346603L133.99284619314858,55.16329212775236L170.4159427695413,62.19703901107641L185.6474195196788,27.23661706472558L199.99591211037477,27.449827042866673L206.83903934594127,11.88431504388791L239.28870720490522,36.40423960741464L255.84466019416868,32.77993017692279L257.6106285130372,55.376443165419914L258.7143587123137,55.58959375346603L268.4271844660252,57.0816352815782L270.1931527848792,57.50792881498273L270.1931527848792,57.29478227304571L285.6453755748662,36.40423960741464L320.30250383239763,41.94704952369284L321.6269800715381,44.9315134975368L325.82115482882364,62.6233109689274L322.73071027082915,85.00006508062143L307.94072560040513,81.16440173811498L308.8237097598467,99.70209411625183L313.23863055698166,101.19348496595921L335.7547266223701,108.86314793595739L325.1589167092461,115.04106498296096L330.2360756259586,121.85763946773295L330.4568216658081,122.28366013828781" stroke="rgba(0, 123, 255, 0.25098039215686274)"></path></g><g class="circles"></g></svg>