<svg id="chart" viewBox="0 0 432 488" preserveAspectRatio="xMidYMid meet" pointer-events="auto"><g class="regions"><path d="M277.5161402290878,349.9145321036149L272.8677542519963,346.735891519063L270.9184311003137,347.23789795351126L270.01874349184436,348.9778505957727L270.8809441166268,351.3527130882312L270.3186393613332,354.6625212455576L267.88198542172995,355.06358210758685L266.49496702533907,354.59567507992324L266.3450190905942,357.0350626859581L265.220409580008,357.3691457660973L265.1079486289491,358.07065785089617L263.870878167304,357.8034251160386L263.0086775425207,360.5753688080458L265.2953835473809,367.1826431508839L264.50815688996954,367.94967054846325L261.7716070808756,369.21671284157196L260.7969455050343,368.0830563475281L261.17181534189604,367.31604644850813L258.69767441860495,366.21537818179627L258.0978826796263,364.91432107100354L257.1232211037841,366.11530715101935L256.37348143006056,366.04859217841636L256.7483512669223,364.3804702075274L256.59840333217744,363.31262202894914L255.923637625825,363.11237874675L255.961124609511,361.67710077022434L254.12426240888635,361.20972475186227L253.8243665393975,361.84401170104206L252.4373481430066,362.04429851408736L250.37556404026418,360.2748603229302L248.23880597015068,360.94263592357333L247.26414439430755,360.1079044708331L246.10204790003536,360.1746873854747L243.96528982992095,358.3378783251958L242.42832349878609,354.9967405508396L242.65324540090296,353.99402501188956L241.30371398819898,352.1887011420231L239.65428670600522,352.65680191746856L239.05449496702659,351.1186148722102L237.51752863589172,349.6469242398746L237.55501561957772,347.3717589963769L238.49219021173212,346.66895404369916L238.00485942381238,345.96606388398664L238.9795209996537,343.8903667957643L238.30475529330124,343.7229394542114L237.7049635543226,344.5935087804721L236.5428670600495,343.2876057088879L234.1811870878173,343.7899109717157L233.131551544604,342.95271132191556L232.0444290177029,338.4632552964845L230.8448455397438,338.4967716127951L229.42034015966783,337.5917628234042L227.28358208955342,333.09813747779253L227.09614717112254,331.42051439977786L226.3838944810832,331.0849311762697L224.47205831308747,331.9909610323607L223.79729260673412,329.3395832000879L222.71017007983482,329.4402907319777L220.4609510586606,327.1571538932692L220.08608122179976,326.01524562575446L217.68691426588066,324.83951489164497L218.02429711905643,324.0667608621859L217.19958347796,322.8906313521152L216.41235682054958,324.26835888883784L215.25026032627648,324.46994984263074L213.30093717459295,323.562734844827L213.37591114196493,321.94955429138076L212.13884068031984,320.2014303084518L209.3273169038539,319.79794143444633L208.87747309961924,320.5376493594433L209.43977785491188,322.31928153219405L206.66574106213284,322.7562012146782L205.8785144047215,324.0667608621859L204.7164179104484,323.9323582478603L203.6292953835491,322.4873314983977L204.7539048941353,321.94955429138076L205.09128774731107,321.31087841790895L204.6789309267624,320.4031641034944L205.57861853523173,320.1005607506411L204.97882679625218,318.4527734657188L207.26553280111239,317.54460663037867L208.01527247483682,316.36713907450076L207.0031239153086,315.1221244163023L206.9656369316217,310.67824239535776L205.50364456785974,308.994051364132L203.4043734814304,308.75822499124456L201.67997223186467,307.4441568775844L199.99305796598492,303.87105743402344L197.66886497743872,302.0162079788886L194.89482818465876,298.507204151786L193.5078097882697,293.94901572647996L191.1086428323506,293.64500642766825L191.1836167997235,295.1648901996416L189.12183269698107,294.6245336797774L184.73585560569336,295.1986607754925L184.3234987851447,295.8064968172637L184.62339465463447,292.59773865577813L182.26171468240318,290.73920714627343L181.17459215550298,290.9081897203987L179.6751128080532,290.06322649000595L178.28809441166322,287.29086263029717L176.3387712599806,286.07329854711134L174.91426587990372,283.1297701680053L175.58903158625526,279.3720077062046L175.1766747657075,278.28822438591305L174.27698715723818,278.49144960876674L173.15237764665198,277.5091265637716L169.81603609857757,280.4894414206401L168.99132245748115,279.40587258277014L167.60430406109117,279.6090575771143L164.38042346407565,278.15273683861597L163.14335300243056,274.9678424054707L159.76952447067015,274.832275073534L158.64491496008395,274.01880259656787L158.86983686220174,272.2897835105384L157.74522735161463,270.4245598990515L162.7309961818819,268.08367733962154L164.23047552933167,266.1491694041622L165.0177021867412,263.16125179882783L167.67927802846316,260.64745280436273L170.07844498438135,260.1377615640167L180.61228740020942,260.2736837595253L186.38528288788712,257.2146365730989L188.6345019090595,251.90832460115962L190.77125997917574,244.48464048071264L193.13293995140612,245.47276469625467L194.6699062825419,247.8231150601996L199.65567511280915,249.28732548404423L204.22908712252774,248.40203486625842L205.31620964942795,249.49160338095498L207.71537660534614,247.99339182651738L215.55015619576716,245.4046238223914L216.93717459215713,247.75500289858064L217.12460951058802,249.59373952645137L218.474140923292,251.26169884743217L217.3495314127049,254.83422172980522L218.62408885803598,255.17434299474985L221.36063866713084,253.88177214876805L221.6230475529337,255.24236476647707L223.34744880250037,255.51444358389085L222.71017007983482,257.3166317333646L223.12252690038258,261.0551724353211L224.0971884762248,263.2631388139416L223.49739673724525,265.2665410320608L224.95938910100722,265.9454982428301L226.90871225269075,268.4908573465475L232.34432488719267,272.0185166626868L231.21971537660556,273.3408191467504L231.14474140923357,276.628277723921L230.54494967025403,277.71237984428194L229.7202360291576,277.84787796403L229.49531412703982,279.03334776862084L230.05761888233337,281.84361024863233L228.93300937174718,284.04344288422317L230.39500173551005,288.44054396653905L228.89552238806027,289.65759940802764L225.97153766053543,289.4885795574344L224.39708434571457,290.73920714627343L224.62200624783145,293.30719922444723L222.9725789656377,293.5774465950394L220.7983339118373,297.42707516132896L221.58556056924772,298.1359329496538L220.91079486289527,299.418403473569L221.51058660187573,300.9704811758104L223.0850399166966,301.3753014278859L224.0222145088519,302.82567108669605L225.48420687261387,302.52213589938424L226.72127733425987,300.59937065818644L228.07080874696385,299.99204671199936L231.33217632766537,303.601298669L232.38181187087866,305.6241783530884L233.206525511976,305.0848139360753L234.3311350225631,306.77015843830554L238.19229434224326,307.5115523442014L239.879208608123,308.82560494857717L241.56612287400276,308.38762101457496L242.87816730301984,309.8698926587599L242.2034015966683,310.9813440712587L244.37764665046961,312.6986167619657L245.7646650468596,313.00161136061274L246.8517875737598,312.1599200624171L248.83859770912932,313.60755241827815L250.71294689344086,313.3382532045018L253.29954876778993,315.7951389241307L254.8740020826117,314.8865506476691L255.9986115931979,315.2903854595388L259.1850052065265,317.94825409997134L259.2599791738994,319.09176759682055L260.90940645609317,320.4367857130212L260.6469975702894,321.2100283620714L261.88406803193357,325.30983604207927L264.32072197153866,328.09737876032796L266.3825060742802,327.6944440594266L267.69455050329816,328.7688739084017L269.6813606386677,327.6944440594266L272.23047552933076,327.5937059752521L274.2547726483872,332.39359525271334L275.3418951752874,332.963945596254L275.0045123221107,334.47342426496084L277.3661922943429,335.4459901649159L277.7785491148916,336.4519203887537L275.86671294689404,337.5247194951753L275.3044081916014,338.4297387857723L275.4168691426594,340.4068804554229L274.1048247136423,342.0818952284237L276.5789656369325,345.83217037967347Z" stroke-width="1.8" stroke-opacity="0" style="cursor: pointer;" fill="rgb(209, 227, 243)" stroke="rgb(0, 123, 255)" pointer-events="all"><title>18.22% from Kargil</title></path><path d="M265.2953835473809,367.1826431508839L263.0086775425207,360.5753688080458L263.870878167304,357.8034251160386L265.1079486289491,358.07065785089617L265.220409580008,357.3691457660973L266.3450190905942,357.0350626859581L266.49496702533907,354.59567507992324L267.88198542172995,355.06358210758685L270.3186393613332,354.6625212455576L270.8809441166268,351.3527130882312L270.01874349184436,348.9778505957727L270.9559180839997,347.2044322099796L273.65498090940764,347.0371005951838L277.5161402290878,349.9145321036149L276.5789656369325,345.83217037967347L274.1048247136423,342.0818952284237L275.4168691426594,340.4068804554229L275.3044081916014,338.4297387857723L275.86671294689404,337.5247194951753L277.7785491148916,336.4519203887537L277.3661922943429,335.4459901649159L275.0045123221107,334.47342426496084L275.3418951752874,332.963945596254L274.2547726483872,332.39359525271334L272.23047552933076,327.5937059752521L269.6813606386677,327.6944440594266L267.69455050329816,328.7688739084017L266.3825060742802,327.6944440594266L264.32072197153866,328.09737876032796L261.88406803193357,325.30983604207927L260.6469975702894,321.2100283620714L260.90940645609317,320.4367857130212L259.2599791738994,319.09176759682055L259.1850052065265,317.94825409997134L255.9986115931979,315.2903854595388L254.8740020826117,314.8865506476691L253.29954876778993,315.7951389241307L250.71294689344086,313.3382532045018L248.83859770912932,313.60755241827815L246.8517875737598,312.1599200624171L245.7646650468596,313.00161136061274L244.37764665046961,312.6986167619657L242.2034015966683,310.9813440712587L242.87816730301984,309.8698926587599L241.56612287400276,308.38762101457496L239.879208608123,308.82560494857717L238.19229434224326,307.5115523442014L234.3311350225631,306.77015843830554L233.206525511976,305.0848139360753L232.38181187087866,305.6241783530884L231.33217632766537,303.601298669L228.07080874696385,299.99204671199936L226.72127733425987,300.59937065818644L225.48420687261387,302.52213589938424L224.0222145088519,302.82567108669605L223.0850399166966,301.3753014278859L221.51058660187573,300.9704811758104L220.91079486289527,299.418403473569L221.58556056924772,298.1359329496538L220.7983339118373,297.42707516132896L222.9725789656377,293.5774465950394L224.62200624783145,293.30719922444723L224.39708434571457,290.73920714627343L225.97153766053543,289.4885795574344L228.89552238806027,289.65759940802764L230.39500173551005,288.44054396653905L228.93300937174718,284.04344288422317L230.05761888233337,281.84361024863233L229.49531412703982,279.03334776862084L229.7202360291576,277.84787796403L230.54494967025403,277.71237984428194L231.14474140923357,276.628277723921L231.21971537660556,273.3408191467504L232.34432488719267,272.0185166626868L226.90871225269075,268.4908573465475L224.95938910100722,265.9454982428301L223.49739673724525,265.2665410320608L224.0971884762248,263.2631388139416L223.12252690038258,261.0551724353211L222.71017007983482,257.3166317333646L223.34744880250037,255.51444358389085L221.6230475529337,255.24236476647707L221.36063866713084,253.88177214876805L218.62408885803598,255.17434299474985L217.3495314127049,254.83422172980522L218.474140923292,251.26169884743217L217.12460951058802,249.59373952645137L216.93717459215713,247.75500289858064L215.55015619576716,245.4046238223914L207.71537660534614,247.99339182651738L205.31620964942795,249.49160338095498L204.22908712252774,248.40203486625842L199.65567511280915,249.28732548404423L194.6699062825419,247.8231150601996L193.13293995140612,245.47276469625467L190.77125997917574,244.48464048071264L188.6345019090595,251.90832460115962L186.38528288788712,257.2146365730989L180.61228740020942,260.2736837595253L170.07844498438135,260.1377615640167L167.67927802846316,260.64745280436273L165.0177021867412,263.16125179882783L164.23047552933167,266.1491694041622L162.7309961818819,268.08367733962154L158.1575841721624,269.84791115106805L157.78271433530153,267.8122076177078L157.10794862895,267.47285202875355L157.48281846581085,266.52254735740667L154.558833738286,264.6214556443349L156.65810482471443,258.2345045869952L153.5466851787578,254.25596811382957L151.03505727178072,253.09928147647452L150.0978826796263,251.63607024712746L144.13745227351774,250.37672124473784L141.175980562306,250.92133943954332L140.23880597014977,251.7381671844621L137.98958694897738,251.77219908233974L132.70392224922034,249.25327844114008L129.33009371745993,249.28732548404423L128.4678930926775,248.50419095062944L127.60569246789328,249.25327844114008L122.05761888233428,248.70849750967227L117.52169385630168,246.9716532623347L115.04755293301059,244.99576108525025L114.33530024297215,242.95099727787465L113.09822978132706,242.20106243400642L99.11558486636659,240.97367838309947L103.38910100659632,239.7801287517832L104.36376258243763,240.08706597024775L106.76292953835582,236.50507711153932L109.42450538007779,235.75427254443593L110.81152377646777,236.19794205366952L112.91079486289527,235.10576873448326L113.39812565081684,232.57929473528384L113.09822978132706,228.8557697071442L113.96043040610948,225.88198506339222L111.11141964595754,224.411593265188L111.4488024991324,222.01709566973204L109.04963554321512,219.31348725646103L105.7882679625136,218.5261119010638L102.48941339812609,222.63292268853002L98.51579312738704,222.46186651057496L97.9160013884075,223.52232949811878L96.34154807358573,224.13798887427538L95.47934744880331,224.00118160283546L95.25442554668643,221.982881045441L94.01735508504044,221.982881045441L93.75494619923666,220.6825683013135L89.8562998958705,220.20342854422506L87.53210690732521,217.73862420008118L87.7195418257561,216.26606300406365L83.55848663658526,216.5743060195723L81.9090593543915,215.3069745254188L81.38424158278485,214.0736155221507L79.13502256161064,214.75884904268332L76.81082957306626,212.18878376949078L73.92433182922696,212.29160940792144L72.9121832696992,211.0232922984601L70.10065949323234,209.92613365793022L66.53939604304196,211.84601777244825L65.67719541825818,211.26326659721553L66.27698715723773,207.69685627137505L64.77750780978886,204.64299387278243L64.77750780978886,202.274223477556L66.91426587990372,197.5336115102159L70.0256855258599,195.3336737836721L69.4633807705668,190.89673415316884L66.72683096147284,190.13968718597152L65.90211732037596,189.00391997054294L63.24054147865445,189.14160130485288L61.17875737591203,187.73020300422695L57.61749392572119,188.90065669154774L52.669212079139925,187.38590414973442L48.50815688996909,188.28103600030408L46.333911836169136,185.45742896280535L41.085734120098095,183.80390729344617L37.936827490455926,180.70220116347036L33.51336341548176,177.70220457171717L33.51336341548176,172.59495588554L34.52551197501043,169.34866651359926L30.92676154113269,166.48064556497457L30.177021867408712,166.34238933856886L28.077750780979386,168.4504135453726L25.978479694551424,167.8284589005425L22.079833391184366,169.07229683567402L20.69281499479439,168.51951521183355L20.542867060049957,166.58433541905424L18.106213120445318,166.860831993813L16.56924678931,166.20412958311454L16.306837903506676,167.06819516444602L14.844845539744256,167.55201170164582L14.807358556058261,168.3813109979901L13.64526206178516,169.17593711572727L11.433530024297852,168.17399806988897L8.884415133634775,169.93590531416385L6.335300242971698,167.6556810538773L3.898646303368423,167.31010883312456L2.13675807011532,164.85591195093048L0.14994793474625112,164.16438804061863L9.094947017729282e-13,161.74335819046155L0.974661575843129,161.0514362900276L1.3870183963913405,158.73285237386335L2.324192988547111,158.73285237386335L3.59875043387774,156.62103705300433L3.0364456785846414,155.02797401806902L1.0496355432155724,154.61231499292035L9.094947017729282e-13,153.3997931781205L0.29989586949068325,150.6619553373448L2.361679972233105,148.16549816704492L1.124609510587561,146.08423232091081L1.6119402985086708,143.9327444849887L2.998958694898647,142.68309815761359L3.5612634501917455,140.49551726813615L5.847969455051498,139.5229728968593L9.034363068380117,141.32898650504194L8.921902117321224,139.59244619705623L13.72023602915715,137.22984911795857L16.53175980562355,133.71877474545454L19.53071850052129,131.91019499439017L19.905588337384415,129.33539261203032L19.305796598404413,128.04752640735933L21.667476570636154,126.68970979625419L22.86706004859525,127.00308271703307L23.916695591809003,126.37631849258742L25.52863589031631,127.0379007958868L26.2034015966683,125.78430697082149L25.453661922943866,125.50569060555745L25.75355779243455,123.10202074587141L29.38979520999692,121.53382646024284L32.20131898646423,116.547389059554L31.076709475877124,114.8376751549863L30.70183963901536,110.3688892186592L32.98854564387466,111.27691544485151L36.474835126693506,108.83187578704838L37.89934050676948,110.33396203384473L39.99861159319744,109.70523343600235L43.40992710864384,109.8798877334234L45.95904199930601,109.28603968870584L46.59632072197246,107.92343142692289L48.13328705310778,108.1330862306022L50.45748004165398,107.22452226926816L56.11801457827187,109.70523343600235L59.22943422422895,108.93668628887099L59.641791044777165,110.43874289944324L61.06629642485359,111.03246210934503L62.265879902812685,110.61337308339671L64.81499479347531,111.3816777179245L66.16452620617883,109.63537010898608L69.38840680319436,110.1942509982905L70.81291218327124,109.18123608186943L74.97396737244071,110.40381617385856L75.94862894828248,109.8449573333578L75.83616799722404,106.90998311851808L73.81187087816852,104.25313081765717L71.93752169385698,104.14822775662651L70.66296424852544,102.36455799933265L66.08955223880685,101.03515869139619L65.82714335300352,99.4604383308706L63.727872266575105,97.50013182591965L64.21520305449576,95.64417238009855L67.28913571676594,96.76482958038378L68.52620617841148,96.16951001700409L70.85039916695769,96.72981263769861L71.30024297119144,97.50013182591965L73.02464422075764,96.51970611219986L74.67407150295094,96.90489503257459L76.58590767094802,98.48037585644806L77.93543908365245,98.3053455988861L81.08434571329599,101.59494643333346L82.84623394654682,101.59494643333346L84.49566122874148,102.99415705025285L86.519958347797,100.75524263106672L88.09441166261786,101.1751111736653L89.29399514057695,100.6502702937878L90.75598750433983,96.30959123826506L95.85421728566598,97.43010744451112L101.81464769177455,92.42095867725857L104.43873654981053,91.43959006739442L105.22596320722005,90.24768286063363L110.88649774383975,90.49309752624004L112.12356820548484,92.77140326964445L113.43561263450283,93.12182460982876L113.88545643873749,86.42475202015157L117.89656369316344,85.54754205314293L120.6706004859434,84.17880278488065L122.09510586602028,88.14366016602844L123.06976744186068,88.77495510092604L124.53175980562355,87.5122896450066L127.94307532106995,88.00336213913397L128.28045817424663,90.24768286063363L132.47900034710256,96.06444666551124L133.52863589031676,94.10288071010518L137.8396390142325,91.19421940890516L142.1131551544604,93.54229953333106L145.14960083304504,91.86019895035861L148.37348143006056,87.0211714053612L151.48490107601629,85.96862106204117L155.833391183618,85.9335324298595L156.28323498785267,90.87872608728412L157.63276640055665,92.31582076449513L159.01978479694662,91.79009979686816L160.21936827490572,92.28077432838745L160.4442901770226,93.78756111718212L159.43214161749438,95.32894473824763L159.73203748698415,97.04495677536897L161.38146476917882,97.39509490618457L163.06837903505857,102.67936687556585L170.94064560916468,106.07112088469785L174.20201318986528,110.61337308339671L178.25060742797723,118.04729803849432L179.41270392225033,119.09349608288267L183.83616799722404,121.08070670169536L187.95973620270797,123.97304066825063L196.46928149948053,125.92360970295249L201.79243318292356,131.7014733889414L203.21693856299953,131.91019499439017L206.32835820895616,134.62283560270635L211.72648385977118,133.78832330643672L216.1499479347458,137.33410328983973L217.12460951058802,140.00926711185002L216.1874349184318,141.25953567704482L217.53696633113577,141.98872457440802L218.88649774383975,144.00216076060997L222.37278722665815,145.28620018617676L223.38493578618636,146.63931527767227L225.52169385630077,147.15965353428737L227.92086081221896,145.8760614419284L231.18222839291957,149.65657706907996L232.0819160013889,152.77610434918643L236.6178410274224,155.20115582715061L236.95522388059726,157.20965876710807L234.85595279416975,157.8328353511165L232.2318639361347,161.67416998452563L235.3807705657764,165.44363783063545L237.18014578271504,169.10684381581495L239.72926067337812,170.0395290901506L241.79104477612054,172.18064409022918L244.00277681360694,173.25088490138978L248.76362374175733,173.90673468947398L252.06247830614484,172.35327784805258L254.01180145782837,172.318751535729L255.54876778896323,174.25188697837984L256.71086428323633,174.4589678245543L256.8608122179803,176.63284033905575L259.85977091287805,177.08130900997776L260.2346407497407,178.15058506166497L262.44637278722803,178.3920054009477L262.9711905588347,177.59872690110478L265.0704616452631,179.04723517707544L265.74522735161463,177.70220457171717L267.4696286011813,177.80568027347135L269.8687955570995,181.56396338892637L271.4807358556063,182.1154196540915L271.818118708783,184.32068669195087L271.25581395348945,185.1129866337683L272.9052412356823,186.24956377301032L273.39257202360386,187.6269156285125L273.1301631378001,189.3825352872368L274.55466851787696,190.44940089757802L273.76744186046653,191.20640495483485L272.6428323498794,190.8279160361035L271.7431447414101,191.44724789114207L268.5567511280815,189.2104406702424L265.37035751475287,190.41498913003443L266.9448108295737,193.0640614098238L271.968066643527,195.2305300072071L276.0166608816389,193.40800260985498L279.12808052759556,193.64874858045368L281.63970843457173,194.68039703025124L283.3266227004524,193.37360946323543L284.86358903158725,194.64601188267443L287.6751128080541,194.30214852087738L287.7500867754261,191.58486766096075L288.23741756334584,190.96555140350574L290.41166261714807,192.96087483140127L292.96077750781114,191.75688750036898L295.5098923984733,193.9238738576919L296.7469628601184,193.64874858045368L297.53418951752974,194.81793545973778L298.69628601180284,192.99527057389105L302.03262755987544,195.64309345043648L302.14508851093433,195.0242366220832L301.0954529677201,194.06143130718374L301.0579659840341,192.8920826973408L299.2211037834095,191.55046304338111L301.170426935093,187.76463169509952L300.3832002776826,185.3540985484874L302.519958347797,187.0415835718577L305.33148212426295,186.66280583921298L307.31829225963247,189.27927916784165L308.1430059007298,188.79739145959184L310.6171468240209,189.967616425085L311.7042693509211,189.0727610716349L311.4043734814304,187.31704177220308L312.22908712252774,184.9063107922857L312.00416522041087,183.80390729344617L313.31620964942886,184.18288364287355L314.0659493231524,181.11586405290336L317.1398819854221,182.70128076919764L318.07705657757833,181.11586405290336L318.1520305449503,177.4952472614832L321.7882679625136,177.59872690110478L324.41235682054867,176.56384187524236L326.474140923292,173.18184347342594L331.909753557793,174.63152916622857L334.0839986115934,172.69852889363847L334.87122526900475,172.87114618277246L335.1711211384945,171.6281791627498L337.34536619229584,171.0065888823583L339.856994099272,168.24310326029217L345.5925026032637,167.41378281342077L348.66643526553344,168.34675939394174L355.07670947587667,166.7225854704734L356.23880597014977,165.85846475257995L359.61263450190927,168.83046181070085L365.76049982645054,169.69410880348914L369.17181534189604,166.23869485284513L368.94689343977916,162.08928594310055L370.37139881985513,159.94417701843213L379.36827490454834,158.8020782414619L379.8556056924681,159.14819427421935L380.7552933009383,164.06065183366627L381.8049288441525,165.5819170021523L387.12808052759556,166.4460818392031L389.45227351614085,167.93212296454885L397.8868448455414,170.8339122770849L399.2738632419305,172.04253313053277L406.69628601180193,173.31992545148387L409.95765359250436,170.281310201834L412.28184658104874,169.38321173289023L413.7813259284976,169.59047842711107L415.9555709822989,172.18064409022918L417.0426935091991,175.59777140614824L418.7296077750789,177.2882820746304L419.81673030198,180.28850684058398L426.97674418604674,182.9424993877592L429.9757028809454,185.31965464194627L432.0000000000009,194.68039703025124L430.31308573412116,195.2992927408418L429.41339812565184,196.63999341517683L429.5258590767098,200.24794174538965L428.8510933703583,203.2012553831496L426.90177021867476,207.79976589270973L426.3394654633812,211.6403479309206L423.977785491149,215.27271827951517L424.1277334258948,222.25659210872436L423.49045470322926,226.39482052518542L420.6789309267624,233.74024992570776L417.86740715029555,238.1428441072785L417.6424852481787,245.8134565723799L410.7448802499139,248.09555539207076L406.0964942728224,247.55066142429723L403.6598403332182,250.61499823954955L401.4106213120449,251.67010276686142L402.3477959042011,254.25596811382957L401.148212426242,254.7321813177707L400.4359597362036,256.6026265878422L403.32245748004243,258.16651916384285L403.5473793821593,260.2736837595253L402.422769871574,261.2590211334152L395.11280805276056,261.63272450167983L391.2891357167655,260.20572307376233L390.0520652551204,261.15709771070146L386.6032627559889,262.00640297057294L387.6528982992031,263.9423383153344L387.6903852828891,265.7757666340642L389.52724748351375,266.3188897316975L389.114890662966,267.8122076177078L389.41478653245485,271.5098560939705L391.2141617493935,274.8661672121916L390.87677889621773,277.4413738432047L390.1270392224924,278.8640101815856L388.5900728913575,279.9138213613853L387.20305449496755,279.54133005802214L386.528288788616,280.01540563475623L385.5536272127738,283.2651384037649L385.81603609857757,284.68630929855567L381.69246789309364,288.57578525702934L381.39257202360386,290.1308281822305L382.66712946893495,291.88818938548684L382.0673377299563,292.631524503387L378.13120444290325,291.3137273578395L369.3967372440138,290.36742775788935L367.89725789656404,288.9138743624294L366.81013536966384,289.2181373130177L365.9479347448814,291.95576932935114L364.67337729954943,292.46259325391543L361.8618535230835,291.8543991116933L359.6501214855962,290.4012268913523L355.7514751822291,291.8543991116933L353.20236029156604,295.3675106435883L355.56404026379823,299.0809392591623L355.30163137799445,299.89081975382055L358.450538007638,306.90496449411216L359.5001735508504,307.2082664775885L359.3502256161064,308.5560803492051L360.3248871919486,308.21915670995145L361.03713988198615,309.39830249419174L361.7493925720246,308.4550053447913L362.19923637625925,310.03830828421565L360.81221797986836,310.47616568084663L359.5751475182233,313.40557919627304L361.4120097188488,315.25673364647855L363.47379382159124,314.6846225587335L363.43630683790434,316.66993955975727L364.33599444637366,319.32716853785496L361.07462686567214,318.6209367208196L357.85074626865753,319.7306905292917L354.10204790003627,318.250971047986L353.6896910794867,318.6209367208196L353.7271780631727,322.1512266471552L355.26414439430846,326.4854706065205L354.6268656716429,328.83601911471555L354.7393266227018,331.5882986827962L355.6390142311702,333.19877933953376L355.863936133288,335.01003261807136L356.68864977438443,335.3789219165933L357.81325928497154,338.16159970106014L359.4251995834784,338.0275254921821L364.56091634849054,340.90943581602596L371.758417216246,340.54089948819797L375.91947240541595,342.14888573372195L378.9184311003137,341.54594326454094L383.64179104477716,343.12016093698094L383.1544602568565,346.6354850161988L379.33078792086144,354.62909825877387L380.23047552933167,357.83682987847965L376.81916001388436,359.4400332367436L379.7056577577241,360.94263592357333L379.7806317250961,362.3447158413917L381.8049288441525,362.7786246747153L389.9021173203755,374.3154520672547L390.9517528635906,375.14815786264876L391.85144047205904,374.9483192549701L393.1634849010761,377.4458127338528L386.97813259284976,386.06233642699203L384.4665046858736,388.15634183246834L383.2669212079154,391.0468417889185L380.9802152030552,391.2129194647748L380.26796251301676,388.4221940672005L376.1818812912197,387.0928130066802L374.75737591114284,389.8841672108872L373.59527941686974,391.0468417889185L372.32072197153775,390.9471929409119L371.6084692815002,392.80702756008895L369.24678930926893,394.30111336799564L366.0229087122543,394.6994724773233L365.68552585907764,395.3965363488833L366.54772648386006,396.92315118931674L366.4352655328021,398.25032233357297L365.38562998958787,398.84745231017587L364.7858382506083,400.7711284703355L360.2874002082626,400.6716432915821L359.2377646650475,401.2353705643304L357.40090246442287,403.8211972151182L356.31377993752267,401.964820424123L353.08989934050715,400.20735704482377L350.61575841721697,397.0890638555611L348.8538701839652,397.1886092229556L346.04234640749837,389.35258253151505L346.04234640749837,388.35573213210137L347.16695591808457,386.72718065198706L345.25511975008703,382.9698245309271L345.5550156195777,380.1751903466029L343.08087469628754,382.57067236567514L339.7070461645271,383.03634725930806L338.43248871919513,385.9626033225941L337.42034015966783,386.826900816493L334.79625130163186,385.4306649147986L332.69698021520344,386.02909224644804L330.7101700798348,387.8240096830641L328.4984380423475,387.92371129466505L327.2238805970155,389.11999917253365L326.73654980909487,391.08005769782653L325.1620964942731,391.47863402997973L321.18847622353405,394.99822419761676L319.4265879902814,392.90664503353787L320.5511975008685,391.47863402997973L320.4387365498105,388.3225008836664L322.38805970149315,387.8240096830641L325.5369663311358,385.297672806759L324.56230475529355,384.3333901950782L324.1124609510598,382.10496060911646L324.9371745921562,378.97708316666626L324.56230475529355,376.24714852701163L322.8379035057278,376.21384880404753L319.95140576188896,377.7454405442272L320.4012495661236,379.409761163708L317.1023950017361,380.60778013958316L316.72752516487435,381.87209090319357L315.2655328011115,382.3378210960698L310.99201666088265,381.2066980734569L311.25442554668643,383.00308598912443L309.23012842763,382.4708800929661L308.2179798681018,383.4354678380612L308.55536272127756,384.59941496394663L307.918083998612,384.9984295833501L306.45609163485005,384.8654277143337L305.6688649774387,383.63501797743265L303.98195071155897,385.297672806759L301.4328358208968,383.5019853029478L301.4703228045819,382.9698245309271L300.1207913918788,382.53740846285564L298.58382506074395,380.60778013958316L299.44602568552637,378.31136247266636L298.9961818812917,375.2480746131662L297.7591114196466,375.2813798184345L296.6719888927464,374.2155194248194L296.8969107948633,373.5159432263306L295.84727525165,371.64999831188516L294.16036098576933,370.650140397232L293.4481082957318,371.01677479022305L290.9364803887547,369.0833528914825L291.4238111766763,367.44944670218206L292.62339465463447,366.3821594250692L288.7247483512674,362.27795777215306L287.5626518569943,362.27795777215306L287.18778202013345,361.37664905795714L285.5008677542528,360.9760226961173L285.01353696633123,362.81200094087126L281.0399166955931,363.9800500289766L280.7025338424164,365.0144126754906L277.5536272127747,367.6828898225158L276.0916348490109,368.31647417578574L275.4543561263463,367.78293402107465L273.65498090940764,369.55009941917183L272.7178063172514,369.1833731390236L272.30544949670366,368.149748106217L270.13120444290234,367.94967054846325L268.4068031933366,369.8167950062109L268.3318292259637,371.8832739303682L266.45748004165307,372.31647543283657L265.59527941686974,370.0834784402937L264.35820895522465,370.15014740020047L262.8587296077758,368.54988268894135Z" stroke-width="1.8" stroke-opacity="1" style="cursor: pointer;" fill="rgb(15, 87, 159)" stroke="rgb(0, 123, 255)" pointer-events="all"><title>81.78% from Leh</title></path></g><g class="state-borders" fill="none" stroke-width="1.5"></g><g class="district-borders" fill="none" stroke-width="1.5"><path d="M277.5161402290878,349.9145321036149L272.8677542519963,346.735891519063L270.9184311003137,347.23789795351126L270.01874349184436,348.9778505957727M265.2953835473809,367.1826431508839L263.0086775425207,360.5753688080458L263.870878167304,357.8034251160386L265.1079486289491,358.07065785089617L265.220409580008,357.3691457660973L266.3450190905942,357.0350626859581L266.49496702533907,354.59567507992324L267.88198542172995,355.06358210758685L270.3186393613332,354.6625212455576L270.8809441166268,351.3527130882312L270.01874349184436,348.9778505957727L270.9559180839997,347.2044322099796L273.65498090940764,347.0371005951838L277.5161402290878,349.9145321036149L276.5789656369325,345.83217037967347L274.1048247136423,342.0818952284237L275.4168691426594,340.4068804554229L275.3044081916014,338.4297387857723L275.86671294689404,337.5247194951753L277.7785491148916,336.4519203887537L277.3661922943429,335.4459901649159L275.0045123221107,334.47342426496084L275.3418951752874,332.963945596254L274.2547726483872,332.39359525271334L272.23047552933076,327.5937059752521L269.6813606386677,327.6944440594266L267.69455050329816,328.7688739084017L266.3825060742802,327.6944440594266L264.32072197153866,328.09737876032796L261.88406803193357,325.30983604207927L260.6469975702894,321.2100283620714L260.90940645609317,320.4367857130212L259.2599791738994,319.09176759682055L259.1850052065265,317.94825409997134L255.9986115931979,315.2903854595388L254.8740020826117,314.8865506476691L253.29954876778993,315.7951389241307L250.71294689344086,313.3382532045018L248.83859770912932,313.60755241827815L246.8517875737598,312.1599200624171L245.7646650468596,313.00161136061274L244.37764665046961,312.6986167619657L242.2034015966683,310.9813440712587L242.87816730301984,309.8698926587599L241.56612287400276,308.38762101457496L239.879208608123,308.82560494857717L238.19229434224326,307.5115523442014L234.3311350225631,306.77015843830554L233.206525511976,305.0848139360753L232.38181187087866,305.6241783530884L231.33217632766537,303.601298669L228.07080874696385,299.99204671199936L226.72127733425987,300.59937065818644L225.48420687261387,302.52213589938424L224.0222145088519,302.82567108669605L223.0850399166966,301.3753014278859L221.51058660187573,300.9704811758104L220.91079486289527,299.418403473569L221.58556056924772,298.1359329496538L220.7983339118373,297.42707516132896L222.9725789656377,293.5774465950394L224.62200624783145,293.30719922444723L224.39708434571457,290.73920714627343L225.97153766053543,289.4885795574344L228.89552238806027,289.65759940802764L230.39500173551005,288.44054396653905L228.93300937174718,284.04344288422317L230.05761888233337,281.84361024863233L229.49531412703982,279.03334776862084L229.7202360291576,277.84787796403L230.54494967025403,277.71237984428194L231.14474140923357,276.628277723921L231.21971537660556,273.3408191467504L232.34432488719267,272.0185166626868L226.90871225269075,268.4908573465475L224.95938910100722,265.9454982428301L223.49739673724525,265.2665410320608L224.0971884762248,263.2631388139416L223.12252690038258,261.0551724353211L222.71017007983482,257.3166317333646L223.34744880250037,255.51444358389085L221.6230475529337,255.24236476647707L221.36063866713084,253.88177214876805L218.62408885803598,255.17434299474985L217.3495314127049,254.83422172980522L218.474140923292,251.26169884743217L217.12460951058802,249.59373952645137L216.93717459215713,247.75500289858064L215.55015619576716,245.4046238223914L207.71537660534614,247.99339182651738L205.31620964942795,249.49160338095498L204.22908712252774,248.40203486625842L199.65567511280915,249.28732548404423L194.6699062825419,247.8231150601996L193.13293995140612,245.47276469625467L190.77125997917574,244.48464048071264L188.6345019090595,251.90832460115962L186.38528288788712,257.2146365730989L180.61228740020942,260.2736837595253L170.07844498438135,260.1377615640167L167.67927802846316,260.64745280436273L165.0177021867412,263.16125179882783L164.23047552933167,266.1491694041622L162.7309961818819,268.08367733962154L158.1575841721624,269.84791115106805L157.78271433530153,267.8122076177078L157.10794862895,267.47285202875355L157.48281846581085,266.52254735740667L154.558833738286,264.6214556443349L156.65810482471443,258.2345045869952L153.5466851787578,254.25596811382957L151.03505727178072,253.09928147647452L150.0978826796263,251.63607024712746L144.13745227351774,250.37672124473784L141.175980562306,250.92133943954332L140.23880597014977,251.7381671844621L137.98958694897738,251.77219908233974L132.70392224922034,249.25327844114008L129.33009371745993,249.28732548404423L128.4678930926775,248.50419095062944L127.60569246789328,249.25327844114008L122.05761888233428,248.70849750967227L117.52169385630168,246.9716532623347L115.04755293301059,244.99576108525025L114.33530024297215,242.95099727787465L113.09822978132706,242.20106243400642L99.11558486636659,240.97367838309947L103.38910100659632,239.7801287517832L104.36376258243763,240.08706597024775L106.76292953835582,236.50507711153932L109.42450538007779,235.75427254443593L110.81152377646777,236.19794205366952L112.91079486289527,235.10576873448326L113.39812565081684,232.57929473528384L113.09822978132706,228.8557697071442L113.96043040610948,225.88198506339222L111.11141964595754,224.411593265188L111.4488024991324,222.01709566973204L109.04963554321512,219.31348725646103L105.7882679625136,218.5261119010638L102.48941339812609,222.63292268853002L98.51579312738704,222.46186651057496L97.9160013884075,223.52232949811878L96.34154807358573,224.13798887427538L95.47934744880331,224.00118160283546L95.25442554668643,221.982881045441L94.01735508504044,221.982881045441L93.75494619923666,220.6825683013135L89.8562998958705,220.20342854422506L87.53210690732521,217.73862420008118L87.7195418257561,216.26606300406365L83.55848663658526,216.5743060195723L81.9090593543915,215.3069745254188L81.38424158278485,214.0736155221507L79.13502256161064,214.75884904268332L76.81082957306626,212.18878376949078L73.92433182922696,212.29160940792144L72.9121832696992,211.0232922984601L70.10065949323234,209.92613365793022L66.53939604304196,211.84601777244825L65.67719541825818,211.26326659721553L66.27698715723773,207.69685627137505L64.77750780978886,204.64299387278243L64.77750780978886,202.274223477556L66.91426587990372,197.5336115102159L70.0256855258599,195.3336737836721L69.4633807705668,190.89673415316884L66.72683096147284,190.13968718597152L65.90211732037596,189.00391997054294L63.24054147865445,189.14160130485288L61.17875737591203,187.73020300422695L57.61749392572119,188.90065669154774L52.669212079139925,187.38590414973442L48.50815688996909,188.28103600030408L46.333911836169136,185.45742896280535L41.085734120098095,183.80390729344617L37.936827490455926,180.70220116347036L33.51336341548176,177.70220457171717L33.51336341548176,172.59495588554L34.52551197501043,169.34866651359926L30.92676154113269,166.48064556497457L30.177021867408712,166.34238933856886L28.077750780979386,168.4504135453726L25.978479694551424,167.8284589005425L22.079833391184366,169.07229683567402L20.69281499479439,168.51951521183355L20.542867060049957,166.58433541905424L18.106213120445318,166.860831993813L16.56924678931,166.20412958311454L16.306837903506676,167.06819516444602L14.844845539744256,167.55201170164582L14.807358556058261,168.3813109979901L13.64526206178516,169.17593711572727L11.433530024297852,168.17399806988897L8.884415133634775,169.93590531416385L6.335300242971698,167.6556810538773L3.898646303368423,167.31010883312456L2.13675807011532,164.85591195093048L0.14994793474625112,164.16438804061863L9.094947017729282e-13,161.74335819046155L0.974661575843129,161.0514362900276L1.3870183963913405,158.73285237386335L2.324192988547111,158.73285237386335L3.59875043387774,156.62103705300433L3.0364456785846414,155.02797401806902L1.0496355432155724,154.61231499292035L9.094947017729282e-13,153.3997931781205L0.29989586949068325,150.6619553373448L2.361679972233105,148.16549816704492L1.124609510587561,146.08423232091081L1.6119402985086708,143.9327444849887L2.998958694898647,142.68309815761359L3.5612634501917455,140.49551726813615L5.847969455051498,139.5229728968593L9.034363068380117,141.32898650504194L8.921902117321224,139.59244619705623L13.72023602915715,137.22984911795857L16.53175980562355,133.71877474545454L19.53071850052129,131.91019499439017L19.905588337384415,129.33539261203032L19.305796598404413,128.04752640735933L21.667476570636154,126.68970979625419L22.86706004859525,127.00308271703307L23.916695591809003,126.37631849258742L25.52863589031631,127.0379007958868L26.2034015966683,125.78430697082149L25.453661922943866,125.50569060555745L25.75355779243455,123.10202074587141L29.38979520999692,121.53382646024284L32.20131898646423,116.547389059554L31.076709475877124,114.8376751549863L30.70183963901536,110.3688892186592L32.98854564387466,111.27691544485151L36.474835126693506,108.83187578704838L37.89934050676948,110.33396203384473L39.99861159319744,109.70523343600235L43.40992710864384,109.8798877334234L45.95904199930601,109.28603968870584L46.59632072197246,107.92343142692289L48.13328705310778,108.1330862306022L50.45748004165398,107.22452226926816L56.11801457827187,109.70523343600235L59.22943422422895,108.93668628887099L59.641791044777165,110.43874289944324L61.06629642485359,111.03246210934503L62.265879902812685,110.61337308339671L64.81499479347531,111.3816777179245L66.16452620617883,109.63537010898608L69.38840680319436,110.1942509982905L70.81291218327124,109.18123608186943L74.97396737244071,110.40381617385856L75.94862894828248,109.8449573333578L75.83616799722404,106.90998311851808L73.81187087816852,104.25313081765717L71.93752169385698,104.14822775662651L70.66296424852544,102.36455799933265L66.08955223880685,101.03515869139619L65.82714335300352,99.4604383308706L63.727872266575105,97.50013182591965L64.21520305449576,95.64417238009855L67.28913571676594,96.76482958038378L68.52620617841148,96.16951001700409L70.85039916695769,96.72981263769861L71.30024297119144,97.50013182591965L73.02464422075764,96.51970611219986L74.67407150295094,96.90489503257459L76.58590767094802,98.48037585644806L77.93543908365245,98.3053455988861L81.08434571329599,101.59494643333346L82.84623394654682,101.59494643333346L84.49566122874148,102.99415705025285L86.519958347797,100.75524263106672L88.09441166261786,101.1751111736653L89.29399514057695,100.6502702937878L90.75598750433983,96.30959123826506L95.85421728566598,97.43010744451112L101.81464769177455,92.42095867725857L104.43873654981053,91.43959006739442L105.22596320722005,90.24768286063363L110.88649774383975,90.49309752624004L112.12356820548484,92.77140326964445L113.43561263450283,93.12182460982876L113.88545643873749,86.42475202015157L117.89656369316344,85.54754205314293L120.6706004859434,84.17880278488065L122.09510586602028,88.14366016602844L123.06976744186068,88.77495510092604L124.53175980562355,87.5122896450066L127.94307532106995,88.00336213913397L128.28045817424663,90.24768286063363L132.47900034710256,96.06444666551124L133.52863589031676,94.10288071010518L137.8396390142325,91.19421940890516L142.1131551544604,93.54229953333106L145.14960083304504,91.86019895035861L148.37348143006056,87.0211714053612L151.48490107601629,85.96862106204117L155.833391183618,85.9335324298595L156.28323498785267,90.87872608728412L157.63276640055665,92.31582076449513L159.01978479694662,91.79009979686816L160.21936827490572,92.28077432838745L160.4442901770226,93.78756111718212L159.43214161749438,95.32894473824763L159.73203748698415,97.04495677536897L161.38146476917882,97.39509490618457L163.06837903505857,102.67936687556585L170.94064560916468,106.07112088469785L174.20201318986528,110.61337308339671L178.25060742797723,118.04729803849432L179.41270392225033,119.09349608288267L183.83616799722404,121.08070670169536L187.95973620270797,123.97304066825063L196.46928149948053,125.92360970295249L201.79243318292356,131.7014733889414L203.21693856299953,131.91019499439017L206.32835820895616,134.62283560270635L211.72648385977118,133.78832330643672L216.1499479347458,137.33410328983973L217.12460951058802,140.00926711185002L216.1874349184318,141.25953567704482L217.53696633113577,141.98872457440802L218.88649774383975,144.00216076060997L222.37278722665815,145.28620018617676L223.38493578618636,146.63931527767227L225.52169385630077,147.15965353428737L227.92086081221896,145.8760614419284L231.18222839291957,149.65657706907996L232.0819160013889,152.77610434918643L236.6178410274224,155.20115582715061L236.95522388059726,157.20965876710807L234.85595279416975,157.8328353511165L232.2318639361347,161.67416998452563L235.3807705657764,165.44363783063545L237.18014578271504,169.10684381581495L239.72926067337812,170.0395290901506L241.79104477612054,172.18064409022918L244.00277681360694,173.25088490138978L248.76362374175733,173.90673468947398L252.06247830614484,172.35327784805258L254.01180145782837,172.318751535729L255.54876778896323,174.25188697837984L256.71086428323633,174.4589678245543L256.8608122179803,176.63284033905575L259.85977091287805,177.08130900997776L260.2346407497407,178.15058506166497L262.44637278722803,178.3920054009477L262.9711905588347,177.59872690110478L265.0704616452631,179.04723517707544L265.74522735161463,177.70220457171717L267.4696286011813,177.80568027347135L269.8687955570995,181.56396338892637L271.4807358556063,182.1154196540915L271.818118708783,184.32068669195087L271.25581395348945,185.1129866337683L272.9052412356823,186.24956377301032L273.39257202360386,187.6269156285125L273.1301631378001,189.3825352872368L274.55466851787696,190.44940089757802L273.76744186046653,191.20640495483485L272.6428323498794,190.8279160361035L271.7431447414101,191.44724789114207L268.5567511280815,189.2104406702424L265.37035751475287,190.41498913003443L266.9448108295737,193.0640614098238L271.968066643527,195.2305300072071L276.0166608816389,193.40800260985498L279.12808052759556,193.64874858045368L281.63970843457173,194.68039703025124L283.3266227004524,193.37360946323543L284.86358903158725,194.64601188267443L287.6751128080541,194.30214852087738L287.7500867754261,191.58486766096075L288.23741756334584,190.96555140350574L290.41166261714807,192.96087483140127L292.96077750781114,191.75688750036898L295.5098923984733,193.9238738576919L296.7469628601184,193.64874858045368L297.53418951752974,194.81793545973778L298.69628601180284,192.99527057389105L302.03262755987544,195.64309345043648L302.14508851093433,195.0242366220832L301.0954529677201,194.06143130718374L301.0579659840341,192.8920826973408L299.2211037834095,191.55046304338111L301.170426935093,187.76463169509952L300.3832002776826,185.3540985484874L302.519958347797,187.0415835718577L305.33148212426295,186.66280583921298L307.31829225963247,189.27927916784165L308.1430059007298,188.79739145959184L310.6171468240209,189.967616425085L311.7042693509211,189.0727610716349L311.4043734814304,187.31704177220308L312.22908712252774,184.9063107922857L312.00416522041087,183.80390729344617L313.31620964942886,184.18288364287355L314.0659493231524,181.11586405290336L317.1398819854221,182.70128076919764L318.07705657757833,181.11586405290336L318.1520305449503,177.4952472614832L321.7882679625136,177.59872690110478L324.41235682054867,176.56384187524236L326.474140923292,173.18184347342594L331.909753557793,174.63152916622857L334.0839986115934,172.69852889363847L334.87122526900475,172.87114618277246L335.1711211384945,171.6281791627498L337.34536619229584,171.0065888823583L339.856994099272,168.24310326029217L345.5925026032637,167.41378281342077L348.66643526553344,168.34675939394174L355.07670947587667,166.7225854704734L356.23880597014977,165.85846475257995L359.61263450190927,168.83046181070085L365.76049982645054,169.69410880348914L369.17181534189604,166.23869485284513L368.94689343977916,162.08928594310055L370.37139881985513,159.94417701843213L379.36827490454834,158.8020782414619L379.8556056924681,159.14819427421935L380.7552933009383,164.06065183366627L381.8049288441525,165.5819170021523L387.12808052759556,166.4460818392031L389.45227351614085,167.93212296454885L397.8868448455414,170.8339122770849L399.2738632419305,172.04253313053277L406.69628601180193,173.31992545148387L409.95765359250436,170.281310201834L412.28184658104874,169.38321173289023L413.7813259284976,169.59047842711107L415.9555709822989,172.18064409022918L417.0426935091991,175.59777140614824L418.7296077750789,177.2882820746304L419.81673030198,180.28850684058398L426.97674418604674,182.9424993877592L429.9757028809454,185.31965464194627L432.0000000000009,194.68039703025124L430.31308573412116,195.2992927408418L429.41339812565184,196.63999341517683L429.5258590767098,200.24794174538965L428.8510933703583,203.2012553831496L426.90177021867476,207.79976589270973L426.3394654633812,211.6403479309206L423.977785491149,215.27271827951517L424.1277334258948,222.25659210872436L423.49045470322926,226.39482052518542L420.6789309267624,233.74024992570776L417.86740715029555,238.1428441072785L417.6424852481787,245.8134565723799L410.7448802499139,248.09555539207076L406.0964942728224,247.55066142429723L403.6598403332182,250.61499823954955L401.4106213120449,251.67010276686142L402.3477959042011,254.25596811382957L401.148212426242,254.7321813177707L400.4359597362036,256.6026265878422L403.32245748004243,258.16651916384285L403.5473793821593,260.2736837595253L402.422769871574,261.2590211334152L395.11280805276056,261.63272450167983L391.2891357167655,260.20572307376233L390.0520652551204,261.15709771070146L386.6032627559889,262.00640297057294L387.6528982992031,263.9423383153344L387.6903852828891,265.7757666340642L389.52724748351375,266.3188897316975L389.114890662966,267.8122076177078L389.41478653245485,271.5098560939705L391.2141617493935,274.8661672121916L390.87677889621773,277.4413738432047L390.1270392224924,278.8640101815856L388.5900728913575,279.9138213613853L387.20305449496755,279.54133005802214L386.528288788616,280.01540563475623L385.5536272127738,283.2651384037649L385.81603609857757,284.68630929855567L381.69246789309364,288.57578525702934L381.39257202360386,290.1308281822305L382.66712946893495,291.88818938548684L382.0673377299563,292.631524503387L378.13120444290325,291.3137273578395L369.3967372440138,290.36742775788935L367.89725789656404,288.9138743624294L366.81013536966384,289.2181373130177L365.9479347448814,291.95576932935114L364.67337729954943,292.46259325391543L361.8618535230835,291.8543991116933L359.6501214855962,290.4012268913523L355.7514751822291,291.8543991116933L353.20236029156604,295.3675106435883L355.56404026379823,299.0809392591623L355.30163137799445,299.89081975382055L358.450538007638,306.90496449411216L359.5001735508504,307.2082664775885L359.3502256161064,308.5560803492051L360.3248871919486,308.21915670995145L361.03713988198615,309.39830249419174L361.7493925720246,308.4550053447913L362.19923637625925,310.03830828421565L360.81221797986836,310.47616568084663L359.5751475182233,313.40557919627304L361.4120097188488,315.25673364647855L363.47379382159124,314.6846225587335L363.43630683790434,316.66993955975727L364.33599444637366,319.32716853785496L361.07462686567214,318.6209367208196L357.85074626865753,319.7306905292917L354.10204790003627,318.250971047986L353.6896910794867,318.6209367208196L353.7271780631727,322.1512266471552L355.26414439430846,326.4854706065205L354.6268656716429,328.83601911471555L354.7393266227018,331.5882986827962L355.6390142311702,333.19877933953376L355.863936133288,335.01003261807136L356.68864977438443,335.3789219165933L357.81325928497154,338.16159970106014L359.4251995834784,338.0275254921821L364.56091634849054,340.90943581602596L371.758417216246,340.54089948819797L375.91947240541595,342.14888573372195L378.9184311003137,341.54594326454094L383.64179104477716,343.12016093698094L383.1544602568565,346.6354850161988L379.33078792086144,354.62909825877387L380.23047552933167,357.83682987847965L376.81916001388436,359.4400332367436L379.7056577577241,360.94263592357333L379.7806317250961,362.3447158413917L381.8049288441525,362.7786246747153L389.9021173203755,374.3154520672547L390.9517528635906,375.14815786264876L391.85144047205904,374.9483192549701L393.1634849010761,377.4458127338528L386.97813259284976,386.06233642699203L384.4665046858736,388.15634183246834L383.2669212079154,391.0468417889185L380.9802152030552,391.2129194647748L380.26796251301676,388.4221940672005L376.1818812912197,387.0928130066802L374.75737591114284,389.8841672108872L373.59527941686974,391.0468417889185L372.32072197153775,390.9471929409119L371.6084692815002,392.80702756008895L369.24678930926893,394.30111336799564L366.0229087122543,394.6994724773233L365.68552585907764,395.3965363488833L366.54772648386006,396.92315118931674L366.4352655328021,398.25032233357297L365.38562998958787,398.84745231017587L364.7858382506083,400.7711284703355L360.2874002082626,400.6716432915821L359.2377646650475,401.2353705643304L357.40090246442287,403.8211972151182L356.31377993752267,401.964820424123L353.08989934050715,400.20735704482377L350.61575841721697,397.0890638555611L348.8538701839652,397.1886092229556L346.04234640749837,389.35258253151505L346.04234640749837,388.35573213210137L347.16695591808457,386.72718065198706L345.25511975008703,382.9698245309271L345.5550156195777,380.1751903466029L343.08087469628754,382.57067236567514L339.7070461645271,383.03634725930806L338.43248871919513,385.9626033225941L337.42034015966783,386.826900816493L334.79625130163186,385.4306649147986L332.69698021520344,386.02909224644804L330.7101700798348,387.8240096830641L328.4984380423475,387.92371129466505L327.2238805970155,389.11999917253365L326.73654980909487,391.08005769782653L325.1620964942731,391.47863402997973L321.18847622353405,394.99822419761676L319.4265879902814,392.90664503353787L320.5511975008685,391.47863402997973L320.4387365498105,388.3225008836664L322.38805970149315,387.8240096830641L325.5369663311358,385.297672806759L324.56230475529355,384.3333901950782L324.1124609510598,382.10496060911646L324.9371745921562,378.97708316666626L324.56230475529355,376.24714852701163L322.8379035057278,376.21384880404753L319.95140576188896,377.7454405442272L320.4012495661236,379.409761163708L317.1023950017361,380.60778013958316L316.72752516487435,381.87209090319357L315.2655328011115,382.3378210960698L310.99201666088265,381.2066980734569L311.25442554668643,383.00308598912443L309.23012842763,382.4708800929661L308.2179798681018,383.4354678380612L308.55536272127756,384.59941496394663L307.918083998612,384.9984295833501L306.45609163485005,384.8654277143337L305.6688649774387,383.63501797743265L303.98195071155897,385.297672806759L301.4328358208968,383.5019853029478L301.4703228045819,382.9698245309271L300.1207913918788,382.53740846285564L298.58382506074395,380.60778013958316L299.44602568552637,378.31136247266636L298.9961818812917,375.2480746131662L297.7591114196466,375.2813798184345L296.6719888927464,374.2155194248194L296.8969107948633,373.5159432263306L295.84727525165,371.64999831188516L294.16036098576933,370.650140397232L293.4481082957318,371.01677479022305L290.9364803887547,369.0833528914825L291.4238111766763,367.44944670218206L292.62339465463447,366.3821594250692L288.7247483512674,362.27795777215306L287.5626518569943,362.27795777215306L287.18778202013345,361.37664905795714L285.5008677542528,360.9760226961173L285.01353696633123,362.81200094087126L281.0399166955931,363.9800500289766L280.7025338424164,365.0144126754906L277.5536272127747,367.6828898225158L276.0916348490109,368.31647417578574L275.4543561263463,367.78293402107465L273.65498090940764,369.55009941917183L272.7178063172514,369.1833731390236L272.30544949670366,368.149748106217L270.13120444290234,367.94967054846325L268.4068031933366,369.8167950062109L268.3318292259637,371.8832739303682L266.45748004165307,372.31647543283657L265.59527941686974,370.0834784402937L264.35820895522465,370.15014740020047L262.8587296077758,368.54988268894135L265.2953835473809,367.1826431508839L264.50815688996954,367.94967054846325L261.7716070808756,369.21671284157196L260.7969455050343,368.0830563475281L261.17181534189604,367.31604644850813L258.69767441860495,366.21537818179627L258.0978826796263,364.91432107100354L257.1232211037841,366.11530715101935L256.37348143006056,366.04859217841636L256.7483512669223,364.3804702075274L256.59840333217744,363.31262202894914L255.923637625825,363.11237874675L255.961124609511,361.67710077022434L254.12426240888635,361.20972475186227L253.8243665393975,361.84401170104206L252.4373481430066,362.04429851408736L250.37556404026418,360.2748603229302L248.23880597015068,360.94263592357333L247.26414439430755,360.1079044708331L246.10204790003536,360.1746873854747L243.96528982992095,358.3378783251958L242.42832349878609,354.9967405508396L242.65324540090296,353.99402501188956L241.30371398819898,352.1887011420231L239.65428670600522,352.65680191746856L239.05449496702659,351.1186148722102L237.51752863589172,349.6469242398746L237.55501561957772,347.3717589963769L238.49219021173212,346.66895404369916L238.00485942381238,345.96606388398664L238.9795209996537,343.8903667957643L238.30475529330124,343.7229394542114L237.7049635543226,344.5935087804721L236.5428670600495,343.2876057088879L234.1811870878173,343.7899109717157L233.131551544604,342.95271132191556L232.0444290177029,338.4632552964845L230.8448455397438,338.4967716127951L229.42034015966783,337.5917628234042L227.28358208955342,333.09813747779253L227.09614717112254,331.42051439977786L226.3838944810832,331.0849311762697L224.47205831308747,331.9909610323607L223.79729260673412,329.3395832000879L222.71017007983482,329.4402907319777L220.4609510586606,327.1571538932692L220.08608122179976,326.01524562575446L217.68691426588066,324.83951489164497L218.02429711905643,324.0667608621859L217.19958347796,322.8906313521152L216.41235682054958,324.26835888883784L215.25026032627648,324.46994984263074L213.30093717459295,323.562734844827L213.37591114196493,321.94955429138076L212.13884068031984,320.2014303084518L209.3273169038539,319.79794143444633L208.87747309961924,320.5376493594433L209.43977785491188,322.31928153219405L206.66574106213284,322.7562012146782L205.8785144047215,324.0667608621859L204.7164179104484,323.9323582478603L203.6292953835491,322.4873314983977L204.7539048941353,321.94955429138076L205.09128774731107,321.31087841790895L204.6789309267624,320.4031641034944L205.57861853523173,320.1005607506411L204.97882679625218,318.4527734657188L207.26553280111239,317.54460663037867L208.01527247483682,316.36713907450076L207.0031239153086,315.1221244163023L206.9656369316217,310.67824239535776L205.50364456785974,308.994051364132L203.4043734814304,308.75822499124456L201.67997223186467,307.4441568775844L199.99305796598492,303.87105743402344L197.66886497743872,302.0162079788886L194.89482818465876,298.507204151786L193.5078097882697,293.94901572647996L191.1086428323506,293.64500642766825L191.1836167997235,295.1648901996416L189.12183269698107,294.6245336797774L184.73585560569336,295.1986607754925L184.3234987851447,295.8064968172637L184.62339465463447,292.59773865577813L182.26171468240318,290.73920714627343L181.17459215550298,290.9081897203987L179.6751128080532,290.06322649000595L178.28809441166322,287.29086263029717L176.3387712599806,286.07329854711134L174.91426587990372,283.1297701680053L175.58903158625526,279.3720077062046L175.1766747657075,278.28822438591305L174.27698715723818,278.49144960876674L173.15237764665198,277.5091265637716L169.81603609857757,280.4894414206401L168.99132245748115,279.40587258277014L167.60430406109117,279.6090575771143L164.38042346407565,278.15273683861597L163.14335300243056,274.9678424054707L159.76952447067015,274.832275073534L158.64491496008395,274.01880259656787L158.86983686220174,272.2897835105384L157.74522735161463,270.4245598990515L162.7309961818819,268.08367733962154" stroke="rgba(0, 123, 255, 0.25098039215686274)"></path></g><g class="circles"></g></svg>